<svg width="27" height="69" viewBox="0 0 27 69" fill="none" xmlns="http://www.w3.org/2000/svg">
<path fill-rule="evenodd" clip-rule="evenodd" d="M3 46H20C21.65 46 23 47.35 23 49V66C23 67.65 21.65 69 20 69H3C1.35 69 0 67.65 0 66V49C0 47.35 1.35 46 3 46ZM21 49C21 48.458 20.542 48 20 48H3C2.458 48 2 48.458 2 49V66C2 66.542 2.458 67 3 67H20C20.542 67 21 66.542 21 66V49Z" fill="white"/>
<path d="M7.28499 7.48601L4.45599 10.315L12.239 18.098L26.171 4.16601L23.343 1.33701L12.239 12.439L7.28499 7.48601Z" fill="white"/>
<path d="M21 20C21 20.542 20.542 21 20 21H3C2.458 21 2 20.542 2 20V3C2 2.458 2.458 2 3 2H19.908L21.493 0.415C21.041 0.146542 20.5257 0.00329969 20 0H3C1.35 0 0 1.35 0 3V20C0 21.65 1.35 23 3 23H20C21.65 23 23 21.65 23 20V10.171L21 12.171V20Z" fill="white"/>
</svg>
